# AST/ASF file generated using VICON BodyLanguage
# -----------------------------------------------
:version 1.10
:name VICON
:units
  mass 1.0
  length 0.45
  angle deg
:documentation
   .ast/.asf automatically generated from VICON data using
   VICON BodyBuilder and BodyLanguage model FoxedUp or BRILLIANT.MOD
:root
   order TX TY TZ RX RY RZ
   axis XYZ
   position 0 0 0  
   orientation 0 0 0 
:bonedata
  begin
     id 1 
     name lhipjoint
     direction 0.627457 -0.725269 0.283342 
     length 2.53237 
     axis 0 0 0  XYZ
  end
  begin
     id 2 
     name lfemur
     direction 0.34202 -0.939693 0  
     length 7.32496  
     axis 0 0 20  XYZ
    dof rx ry rz
    limits (-160.0 20.0)
           (-70.0 70.0)
           (-60.0 70.0)
  end
  begin
     id 3 
     name ltibia
     direction 0.34202 -0.939693 0   
     length 7.69674   
     axis 0 0 20   XYZ
    dof rx
    limits (-10.0 170.0)
  end
  begin
     id 4 
     name lfoot
     direction 0.127289 -0.349722 0.928166   
     length 1.8612   
     axis -90 7.62852e-016 20   XYZ
    dof rx rz
    limits (-45.0 90.0)
           (-70.0 20.0)
  end
  begin
     id 5 
     name ltoes
     direction 1.53561e-011 -4.21864e-011 1   
     length 0.925608   
     axis -90 7.62852e-016 20   XYZ
    dof rx
    limits (-90.0 20.0)
  end
  begin
     id 6 
     name rhipjoint
     direction -0.609094 -0.738725 0.288599   
     length 2.48624  
     axis 0 0 0  XYZ 
  end
  begin
     id 7 
     name rfemur
     direction -0.34202 -0.939693 0   
     length 7.44259   
     axis 0 0 -20   XYZ
    dof rx ry rz
    limits (-160.0 20.0)
           (-70.0 70.0)
           (-70.0 60.0)
  end
  begin
     id 8 
     name rtibia
     direction -0.34202 -0.939693 0   
     length 7.7781   
     axis 0 0 -20   XYZ
    dof rx
    limits (-10.0 170.0)
 end
 begin
     id 9 
     name rfoot
     direction -0.107015 -0.294021 0.949789   
     length 2.14741  
     axis -90 -7.62852e-016 -20   XYZ
    dof rx rz
    limits (-45.0 90.0)
           (-20.0 70.0)
  end
  begin
     id 10 
     name rtoes
     direction -1.53497e-011 -4.21924e-011 1   
     length 1.0706   
     axis -90 -7.62852e-016 -20   XYZ
    dof rx
    limits (-90.0 20.0)
  end
  begin
     id 11 
     name lowerback
     direction -0.0142066 0.998112 -0.0597545   
     length 1.86627   
     axis 0 0 0   XYZ
    dof rx ry rz
    limits (-20.0 45.0)
           (-30.0 30.0)
           (-30.0 30.0)
  end
  begin
     id 12 
     name upperback
     direction 0.00547294 0.999744 0.0219437   
     length 1.86272   
     axis 0 0 0   XYZ
    dof rx ry rz
    limits (-20.0 45.0)
           (-30.0 30.0)
           (-30.0 30.0)
  end
  begin
     id 13 
     name thorax
     direction 0.0116162 0.998704 0.0495538   
     length 1.8703   
     axis 0 0 0   XYZ
    dof rx ry rz
    limits (-20.0 45.0)
           (-30.0 30.0)
           (-30.0 30.0)
  end
  begin
     id 14 
     name lowerneck
     direction -0.0106574 0.998739 0.0490586   
     length 1.8074   
     axis 0 0 0   XYZ
    dof rx ry rz
    limits (-20.0 45.0)
           (-30.0 30.0)
           (-30.0 30.0)
  end
  begin
     id 15 
     name upperneck
     direction 0.030527 0.976587 -0.212944   
     length 1.80681   
     axis 0 0 0   XYZ
    dof rx ry rz
    limits (-20.0 45.0)
           (-30.0 30.0)
           (-30.0 30.0)
  end
  begin
     id 16
     name head
     direction 0.00869225 0.997035 -0.0764531  
     length 1.8313  
     axis 0 0 0   XYZ
    dof rx ry rz
    limits (-20.0 45.0)
           (-30.0 30.0)
           (-30.0 30.0)
  end
  begin
     id 17 
     name lclavicle
     direction 0.915958 0.399447 0.0382386  
     length 3.78965  
     axis 0 0 0   XYZ
    dof ry rz
    limits (-20.0 10.0)
           (0.0 20.0)
  end
  begin
     id 18 
     name lhumerus
     direction 1 -4.48967e-011 3.19303e-027   
     length 4.78095   
     axis -180 -30 -90   XYZ
    dof rx ry rz
    limits (-60.0 90.0)
           (-90.0 90.0)
           (-90.0 90.0)
  end
  begin
     id 19
     name lradius
     direction 1 -4.48967e-011 -3.77974e-027   
     length 3.58615   
     axis -180 -30 -90   XYZ
    dof rx
    limits (-10.0 170.0)
  end
  begin
     id 20
     name lwrist
     direction 1 -4.48927e-011 1.2807e-027   
     length 1.79307   
     axis 1.91374e-015 90 90   XYZ
    dof ry
    limits (-180.0 0.0)
 end
  begin
     id 21 
     name lhand
     direction 1 -4.49036e-011 2.5614e-027   
     length 0.659812   
     axis -1.63439e-015 90 90   XYZ
    dof rx rz
    limits (-90.0 90.0)
           (-45.0 45.0)
  end
  begin
     id 22 
     name lfingers
     direction 1 -4.49052e-011 5.1228e-027   
     length 0.531957   
     axis -3.26879e-015 90 90   XYZ
    dof rx
    limits (0.0 90.0)
  end
  begin
     id 23
     name lthumb
     direction 0.707107 -6.35012e-011 0.707107   
     length 0.763787   
     axis -90 45 2.85299e-015   XYZ
    dof rx rz
    limits (-45.0 45.0)
           (-45.0 45.0)
  end
  begin
     id 24 
     name rclavicle
     direction -0.895351 0.435135 0.0948887   
     length 3.70497  
     axis 0 0 0   XYZ 
    dof ry rz
    limits (-10.0 20.0)
           (-20.0 0.0)
  end
  begin
     id 25 
     name rhumerus
     direction -1 -4.48971e-011 2.38946e-027  
     length 4.48913   
     axis -180 30 90   XYZ
    dof rx ry rz
    limits (-90.0 60.0)
           (-90.0 90.0)
           (-90.0 90.0)
  end
  begin
     id 26 
     name rradius
     direction -1 -4.4895e-011 4.38668e-027   
     length 3.7051   
     axis -180 30 90   XYZ
    dof rx
    limits (-10.0 170.0)
  end
  begin
     id 27 
     name rwrist
     direction -1 -4.49007e-011 1.2807e-027   
     length 1.85255   
     axis 1.91374e-015 -90 -90   XYZ
    dof ry
    limits (-180.0 0.0)
  end
  begin
     id 28
     name rhand
     direction -1 -4.48851e-011 2.5614e-027   
     length 0.449136   
     axis -1.63439e-015 -90 -90   XYZ
    dof rx rz
    limits (-90.0 90.0)
           (-45.0 45.0)
  end
  begin
     id 29
     name rfingers
     direction -1 -4.49128e-011 5.1228e-027   
     length 0.362105   
     axis -3.26879e-015 -90 -90   XYZ
    dof rx
    limits (0.0 90.0)
  end
  begin
     id 30
     name rthumb
     direction -0.707107 -6.34851e-011 0.707107   
     length 0.519912   
     axis -90 -45 -2.85299e-015   XYZ
    dof rx rz
    limits (-45.0 45.0)
           (-45.0 45.0)
  end
:hierarchy
  begin
    root lhipjoint rhipjoint lowerback
    lhipjoint lfemur
    lfemur ltibia
    ltibia lfoot
    lfoot ltoes
    rhipjoint rfemur
    rfemur rtibia
    rtibia rfoot
    rfoot rtoes
    lowerback upperback
    upperback thorax
    thorax lowerneck lclavicle rclavicle
    lowerneck upperneck
    upperneck head
    lclavicle lhumerus
    lhumerus lradius
    lradius lwrist
    lwrist lhand lthumb
    lhand lfingers
    rclavicle rhumerus
    rhumerus rradius
    rradius rwrist
    rwrist rhand rthumb
    rhand rfingers
  end

#!OML:ASF I:\Actors\actors\Patient Classification 2\Patient 1\Session 1\actor1.ASF
:FULLY-SPECIFIED
:DEGREES
1
root -0.952576 18.6829 5.8868 2.54937 -0.410653 -7.86167
lowerback 2.75445 0.583953 7.30251
upperback -1.46022 1.08071 0.222581
thorax -2.93423 0.396019 -3.92109
lowerneck -6.46127 -1.49479 0.434362
upperneck 26.7626 -2.90095 2.76283
head 9.51878 -1.02176 0.593028
rclavicle -7.26806e-015 -8.74653e-015
rhumerus -48.1216 -6.1631 -86.6418
rradius 41.4274
rwrist 24.681
rhand -1.02279 -34.3052
rfingers 7.12502
rthumb 24.6104 -62.7431
lclavicle -7.26806e-015 -8.74653e-015
lhumerus -42.3125 2.34565 86.1242
lradius 38.7554
lwrist -9.35728
lhand -3.43312 -27.2401
lfingers 7.12502
lthumb 22.2982 1.49331
rfemur 6.47149 -0.934628 23.2046
rtibia 1.59028e-015
rfoot -17.3044 -9.87402
rtoes -2.04599
lfemur -7.66137 -3.64368 -4.79317
ltibia 25.2934
lfoot -22.5624 9.97545
ltoes -56.6723
2
root -0.95121 18.684 5.88684 2.57437 -0.396009 -7.85832
lowerback 2.7693 0.589051 7.30159
upperback -1.43623 1.08691 0.194837
thorax -2.91637 0.400126 -3.94977
lowerneck -6.4135 -1.49899 0.453568
upperneck 26.6944 -2.91734 2.80507
head 9.48611 -1.02456 0.602983
rclavicle 7.82715e-016 3.18055e-015
rhumerus -48.0021 -6.04538 -86.7536
rradius 41.3094
rwrist 24.4914
rhand -1.02413 -34.3835
rfingers 7.12502
rthumb 24.6091 -62.8216
lclavicle 7.82715e-016 3.18055e-015
lhumerus -42.2816 2.32768 86.0729
lradius 38.7459
lwrist -9.32311
lhand -3.47346 -27.2552
lfingers 7.12502
lthumb 22.2595 1.48287
rfemur 6.44158 -0.947997 23.1935
rtibia 3.18055e-015
rfoot -17.3086 -9.86138
rtoes -1.88492
lfemur -7.70896 -3.62161 -4.79815
ltibia 25.3199
lfoot -22.5551 9.94748
ltoes -56.6477
3
root -0.950104 18.6845 5.88733 2.60247 -0.37857 -7.88565
lowerback 2.78603 0.60671 7.3558
upperback -1.41225 1.11189 0.153918
thorax -2.89628 0.412468 -4.02404
lowerneck -6.40388 -1.52467 0.550724
upperneck 26.6288 -2.94429 2.71895
head 9.45854 -1.03762 0.553787
rclavicle 8.69683e-016 -7.95139e-016
rhumerus -47.827 -5.72664 -86.9914
rradius 41.0809
rwrist 24.057
rhand -1.24086 -34.4013
rfingers 7.12502
rthumb 24.4013 -62.8675
lclavicle 8.69683e-016 -7.95139e-016
lhumerus -42.2313 2.3145 86.0075
lradius 38.7218
lwrist -9.35079
lhand -3.49858 -27.1589
lfingers 7.12502
lthumb 22.2354 1.58205
rfemur 6.40836 -0.962606 23.2192
rtibia 2.70347e-014
rfoot -17.2823 -9.87214
rtoes -2.0819
lfemur -7.76087 -3.62959 -4.7718
ltibia 25.3531
lfoot -22.5466 9.93889
ltoes -56.6021
4
root -0.950133 18.6846 5.88649 2.65026 -0.3399 -7.92725
lowerback 2.81311 0.622783 7.36614
upperback -1.40842 1.13568 0.144693
thorax -2.90433 0.423828 -4.04102
lowerneck -6.41658 -1.55452 0.650808
upperneck 26.6032 -2.96198 2.56523
head 9.44798 -1.05227 0.481593
rclavicle 9.16894e-015 -1.27222e-014
rhumerus -47.752 -5.54102 -87.11
rradius 40.9759
rwrist 23.805
rhand -1.36683 -34.3766
rfingers 7.12502
rthumb 24.2806 -62.859
lclavicle 9.16894e-015 -1.27222e-014
lhumerus -42.23 2.26238 85.998
lradius 38.7448
lwrist -9.31204
lhand -3.50834 -26.9796
lfingers 7.12502
lthumb 22.226 1.76242
rfemur 6.34968 -0.99659 23.2676
rtibia -2.22639e-014
rfoot -17.256 -9.89401
rtoes -2.33926
lfemur -7.84904 -3.5538 -4.71254
ltibia 25.3808
lfoot -22.4964 9.89034
ltoes -56.6765
5
root -0.950307 18.6855 5.88412 2.68786 -0.291987 -7.95674
lowerback 2.85441 0.63739 7.31576
upperback -1.38785 1.15622 0.161265
thorax -2.9047 0.435746 -3.99701
lowerneck -6.46274 -1.56716 0.661767
upperneck 26.6104 -2.97928 2.55448
head 9.45921 -1.05953 0.473907
rclavicle 2.37299e-014 2.54444e-014
rhumerus -47.7322 -5.54237 -87.0905
rradius 41.0203
rwrist 23.8154
rhand -1.33316 -34.2683
rfingers 7.12502
rthumb 24.3128 -62.7463
lclavicle 2.37299e-014 2.54444e-014
lhumerus -42.205 2.15919 86.0445
lradius 38.7843
lwrist -9.24335
lhand -3.52405 -26.9523
lfingers 7.12502
lthumb 22.2109 1.79151
rfemur 6.30466 -1.04086 23.3017
rtibia 3.18055e-015
rfoot -17.2601 -9.88113
rtoes -2.23506
lfemur -7.93449 -3.50805 -4.66463
ltibia 25.4113
lfoot -22.4645 9.84688
ltoes -56.7196
6
root -0.949517 18.6869 5.88104 2.70747 -0.262554 -7.97062
lowerback 2.92246 0.654832 7.27142
upperback -1.35608 1.18238 0.171751
thorax -2.90769 0.450469 -3.96341
lowerneck -6.49129 -1.57999 0.616759
upperneck 26.5957 -3.00163 2.60262
head 9.46115 -1.06896 0.495806
rclavicle 2.09966e-014 1.59028e-014
rhumerus -47.7273 -5.53723 -87.0769
rradius 41.1088
rwrist 23.8201
rhand -1.31913 -34.16
rfingers 7.12502
rthumb 24.3263 -62.6363
lclavicle 2.09966e-014 1.59028e-014
lhumerus -42.1495 2.09525 86.0737
lradius 38.7859
lwrist -9.21999
lhand -3.52784 -27.1258
lfingers 7.12502
lthumb 22.2073 1.61848
rfemur 6.27775 -1.06845 23.3129
rtibia -1.11319e-014
rfoot -17.2732 -9.85038
rtoes -1.83806
lfemur -7.99545 -3.53698 -4.64627
ltibia 25.442
lfoot -22.4765 9.83307
ltoes -56.6781
7
root -0.948515 18.6885 5.87855 2.75771 -0.252824 -7.99967
lowerback 2.965 0.668829 7.27923
upperback -1.34812 1.20441 0.162043
thorax -2.92042 0.460933 -3.97968
lowerneck -6.48858 -1.59204 0.652551
upperneck 26.6088 -3.0048 2.52667
head 9.46345 -1.07461 0.463156
rclavicle 7.74018e-015 9.54166e-015
rhumerus -47.7383 -5.53737 -87.1057
rradius 41.1674
rwrist 23.8296
rhand -1.40506 -34.1192
rfingers 7.12502
rthumb 24.2439 -62.6065
lclavicle 7.74018e-015 9.54166e-015
lhumerus -42.1342 2.03896 86.0705
lradius 38.7968
lwrist -9.11943
lhand -3.49265 -27.17
lfingers 7.12502
lthumb 22.2411 1.57028
rfemur 6.21093 -1.0739 23.34
rtibia 1.43125e-014
rfoot -17.2735 -9.83508
rtoes -1.46398
lfemur -8.08084 -3.55954 -4.61454
ltibia 25.4687
lfoot -22.4822 9.84409
ltoes -56.6853
8
root -0.947386 18.6895 5.87686 2.81611 -0.230374 -8.04857
lowerback 3.00083 0.6752 7.31668
upperback -1.35391 1.21749 0.149737
thorax -2.94427 0.465566 -4.0149
lowerneck -6.43921 -1.59965 0.693439
upperneck 26.5938 -3.00638 2.47279
head 9.44719 -1.07766 0.437838
rclavicle 2.83268e-015 1.74931e-014
rhumerus -47.7199 -5.57382 -87.1278
rradius 41.1509
rwrist 23.8531
rhand -1.5001 -34.048
rfingers 7.12502
rthumb 24.1528 -62.5475
lclavicle 2.83268e-015 1.74931e-014
lhumerus -42.1517 1.96904 86.0787
lradius 38.8424
lwrist -8.97305
lhand -3.49213 -27.0936
lfingers 7.12502
lthumb 22.2416 1.64665
rfemur 6.13865 -1.09052 23.391
rtibia 7.95139e-015
rfoot -17.2754 -9.8379
rtoes -1.42684
lfemur -8.17087 -3.54357 -4.55783
ltibia 25.4894
lfoot -22.4521 9.84635
ltoes -56.7264
9
root -0.945429 18.6896 5.87536 2.84757 -0.198459 -8.0645
lowerback 3.06193 0.678484 7.32575
upperback -1.34782 1.22687 0.135944
thorax -2.97086 0.469097 -4.03593
lowerneck -6.39573 -1.60628 0.598832
upperneck 26.5439 -3.02654 2.58755
head 9.42475 -1.08538 0.492098
rclavicle -7.45443e-015 1.43125e-014
rhumerus -47.6887 -5.60487 -87.1219
rradius 41.1219
rwrist 23.8376
rhand -1.55433 -33.8981
rfingers 7.12502
rthumb 24.1008 -62.4044
lclavicle -7.45443e-015 1.43125e-014
lhumerus -42.1565 1.96978 86.0755
lradius 38.8669
lwrist -8.95956
lhand -3.54897 -27.0854
lfingers 7.12502
lthumb 22.187 1.66135
rfemur 6.09771 -1.11973 23.4053
rtibia -6.36111e-015
rfoot -17.2789 -9.85734
rtoes -1.58345
lfemur -8.22624 -3.52696 -4.54193
ltibia 25.5029
lfoot -22.4235 9.83757
ltoes -56.7297
10
root -0.943751 18.6899 5.8744 2.87778 -0.165634 -8.03627
lowerback 3.1089 0.670139 7.29247
upperback -1.33887 1.21697 0.101763
thorax -2.98909 0.464037 -4.05315
lowerneck -6.41514 -1.58687 0.516087
upperneck 26.5967 -3.01552 2.69721
head 9.45023 -1.0758 0.545165
rclavicle 4.87022e-015 -1.59028e-015
rhumerus -47.6955 -5.54875 -87.1841
rradius 41.1697
rwrist 23.7628
rhand -1.61304 -33.8977
rfingers 7.12502
rthumb 24.0445 -62.4115
lclavicle 4.87022e-015 -1.59028e-015
lhumerus -42.1501 2.01558 86.0172
lradius 38.8538
lwrist -9.01401
lhand -3.558 -27.0721
lfingers 7.12502
lthumb 22.1784 1.67559
rfemur 6.05829 -1.15213 23.3715
rtibia -4.77083e-015
rfoot -17.2686 -9.87383
rtoes -1.727
lfemur -8.27562 -3.56744 -4.57895
ltibia 25.51
lfoot -22.4285 9.86266
ltoes -56.7219
11
root -0.942793 18.6915 5.87342 2.90657 -0.127903 -7.99161
lowerback 3.15111 0.64692 7.23259
upperback -1.32863 1.18519 0.0550508
thorax -3.00615 0.448561 -4.06725
lowerneck -6.44257 -1.55448 0.568561
upperneck 26.6841 -2.97563 2.67304
head 9.485 -1.05306 0.531641
rclavicle -5.44173e-015 1.82882e-014
rhumerus -47.6811 -5.44155 -87.3161
rradius 41.2324
rwrist 23.6548
rhand -1.59883 -34.1287
rfingers 7.12502
rthumb 24.0581 -62.6407
lclavicle -5.44173e-015 1.82882e-014
lhumerus -42.1425 2.04644 85.9297
lradius 38.8449
lwrist -9.00496
lhand -3.4816 -26.9502
lfingers 7.12502
lthumb 22.2517 1.78883
rfemur 6.02568 -1.1904 23.3179
rtibia 1.74931e-014
rfoot -17.2628 -9.86425
rtoes -1.66607
lfemur -8.32585 -3.61982 -4.63059
ltibia 25.5108
lfoot -22.4382 9.88686
ltoes -56.7247
12
root -0.941879 18.6931 5.87165 2.93568 -0.0968564 -7.9754
lowerback 3.20902 0.629202 7.17568
upperback -1.31424 1.16296 0.0433816
thorax -3.02722 0.438103 -4.04722
lowerneck -6.445 -1.54729 0.52667
upperneck 26.7042 -2.97011 2.71523
head 9.49387 -1.0499 0.553985
rclavicle -7.00716e-015 -5.56597e-015
rhumerus -47.6248 -5.35899 -87.3737
rradius 41.2535
rwrist 23.5952
rhand -1.45299 -34.2573
rfingers 7.12502
rthumb 24.198 -62.7507
lclavicle -7.00716e-015 -5.56597e-015
lhumerus -42.1279 2.06994 85.9035
lradius 38.8599
lwrist -8.92948
lhand -3.41595 -26.9395
lfingers 7.12502
lthumb 22.3147 1.79194
rfemur 5.98922 -1.22057 23.2961
rtibia -3.18055e-015
rfoot -17.2589 -9.85387
rtoes -1.45385
lfemur -8.37405 -3.65426 -4.64782
ltibia 25.5076
lfoot -22.433 9.89393
ltoes -56.7125
13
root -0.94107 18.6937 5.86931 2.96051 -0.0673203 -7.98902
lowerback 3.29047 0.624576 7.1208
upperback -1.31151 1.16173 0.0676798
thorax -3.07183 0.437273 -3.99251
lowerneck -6.37808 -1.5589 0.335639
upperneck 26.6691 -2.99597 2.88471
head 9.47442 -1.0641 0.643404
rclavicle 3.62782e-015 -3.97569e-015
rhumerus -47.608 -5.31625 -87.3413
rradius 41.2706
rwrist 23.5529
rhand -1.38078 -34.1399
rfingers 7.12502
rthumb 24.2672 -62.6241
lclavicle 3.62782e-015 -3.97569e-015
lhumerus -42.1402 2.06859 85.9531
lradius 38.9122
lwrist -8.83147
lhand -3.37085 -26.9811
lfingers 7.12502
lthumb 22.358 1.74517
rfemur 5.95468 -1.24791 23.3102
rtibia -3.18055e-015
rfoot -17.2443 -9.84814
rtoes -1.35888
lfemur -8.41649 -3.67175 -4.63194
ltibia 25.5043
lfoot -22.4077 9.89234
ltoes -56.6969
14
root -0.940401 18.6939 5.86648 2.97685 -0.0297982 -7.97744
lowerback 3.38569 0.620279 7.04542
upperback -1.31774 1.16061 0.0648216
thorax -3.1333 0.435824 -3.95492
lowerneck -6.33621 -1.56979 0.284962
upperneck 26.6879 -3.01002 2.91343
head 9.47455 -1.07272 0.661084
rclavicle -7.0817e-015 9.54166e-015
rhumerus -47.6416 -5.34244 -87.3315
rradius 41.3022
rwrist 23.5214
rhand -1.45967 -34.0263
rfingers 7.12502
rthumb 24.1915 -62.5206
lclavicle -7.0817e-015 9.54166e-015
lhumerus -42.1655 2.05676 85.9755
lradius 38.9654
lwrist -8.74396
lhand -3.34916 -26.7411
lfingers 7.12502
lthumb 22.3788 1.98271
rfemur 5.9332 -1.28502 23.2967
rtibia 3.18055e-014
rfoot -17.227 -9.84468
rtoes -1.48599
lfemur -8.45398 -3.68617 -4.64426
ltibia 25.5004
lfoot -22.3817 9.88388
ltoes -56.6981
